<?xml version="1.0" encoding="UTF-8"?>
<svg version="1.1" xmlns="http://www.w3.org/2000/svg" width="1024" height="1024">
<path d="M0 0 C337.92 0 675.84 0 1024 0 C1024 337.92 1024 675.84 1024 1024 C686.08 1024 348.16 1024 0 1024 C0 686.08 0 348.16 0 0 Z " fill="#00856F" transform="translate(0,0)"/>
<path d="M0 0 C1.11571381 -0.00960754 2.23142761 -0.01921509 3.38095093 -0.02911377 C4.58506622 -0.03336365 5.78918152 -0.03761353 7.02978516 -0.04199219 C8.90254623 -0.0505423 8.90254623 -0.0505423 10.81314087 -0.05926514 C13.4610762 -0.06871652 16.10889825 -0.07561146 18.75683594 -0.07910156 C21.44707974 -0.08346464 24.13699893 -0.09727195 26.82714844 -0.12011719 C30.72812487 -0.15086759 34.62870037 -0.1611838 38.52978516 -0.16699219 C39.71365814 -0.17933899 40.89753113 -0.19168579 42.11727905 -0.20440674 C54.56359182 -0.17184793 67.21784669 1.35205067 77.07666016 9.51269531 C86.5077643 19.14130949 90.27797598 34.97355032 94.19384766 47.53613281 C94.97515888 50.0012445 95.76017917 52.46515609 96.54537964 54.92903137 C97.0763932 56.59598042 97.60628142 58.26328837 98.13504028 59.93095398 C100.39994285 67.0655777 102.76432761 74.16415022 105.15609741 81.25704956 C109.71427455 94.78255922 114.0756782 108.36581124 118.38134766 121.97363281 C122.82380611 136.01106833 127.34545772 150.01548767 132.03225708 163.97323608 C137.3958125 179.94725873 142.62200452 195.96526262 147.83789062 211.98803711 C150.80529739 221.10130439 153.77713531 230.21299956 156.79541016 239.30957031 C157.03552826 240.03641022 157.27564636 240.76325012 157.52304077 241.51211548 C158.72168238 245.1112629 159.98871139 248.65739627 161.44384766 252.16113281 C164.33636226 252.11899352 164.33636226 252.11899352 167.44384766 251.16113281 C169.44373163 248.67002209 169.44373163 248.67002209 170.83447266 245.33691406 C171.12292053 244.71738358 171.41136841 244.09785309 171.70855713 243.45954895 C175.59846333 234.92258243 178.87259659 226.11729475 182.19384766 217.34863281 C182.93066901 215.4199382 183.66831982 213.49156028 184.40673828 211.56347656 C185.5662494 208.53527578 186.7251236 205.50684404 187.88134766 202.47738647 C191.7984849 192.21402154 195.77180692 181.9727292 199.75039673 171.73306274 C201.74242494 166.60560342 203.7320609 161.47721686 205.72119141 156.34863281 C206.11304123 155.33835526 206.50489105 154.3280777 206.90861511 153.28718567 C210.01593219 145.27234253 213.11052565 137.25263142 216.20178223 129.23158264 C219.64633975 120.2946821 223.10050358 111.36153342 226.56365967 102.43182373 C227.38830038 100.30443253 228.21136988 98.17643968 229.03417969 96.04833984 C243.83538512 57.86733238 243.83538512 57.86733238 258.54931641 51.16113281 C274.64719651 45.59965197 300.26532761 45.28096451 315.81884766 52.34863281 C323.46959555 56.6676034 327.3968975 61.6027986 331.26806641 69.47363281 C331.61831375 70.18147415 331.9685611 70.88931549 332.329422 71.61860657 C335.7945525 78.72084353 338.75802894 85.99080188 341.63134766 93.34863281 C342.21689221 94.83076907 342.8031855 96.31260969 343.39013672 97.79418945 C344.69181727 101.08356448 345.98914289 104.37461187 347.28320312 107.66699219 C351.40410924 118.15050489 355.54913485 128.62451449 359.69384766 139.09863281 C360.36414001 140.79292923 360.36414001 140.79292923 361.04797363 142.52145386 C370.00131091 165.14205283 379.12735132 187.68771865 388.44384766 210.16113281 C388.78411987 210.98323242 389.12439209 211.80533203 389.47497559 212.65234375 C391.4246985 217.36128419 393.38329632 222.06634028 395.35647583 226.76550293 C395.94495397 228.16865419 396.53136487 229.5726747 397.115448 230.97766113 C401.35381398 241.59187539 401.35381398 241.59187539 407.44384766 251.16113281 C410.5479616 251.42059357 410.5479616 251.42059357 413.44384766 251.16113281 C418.20847048 242.13207487 422.10140488 233.18881912 425.26416016 223.45410156 C425.68811813 222.17499508 426.11296797 220.89618392 426.53863525 219.61764526 C427.66245888 216.23279321 428.77288488 212.84369751 429.88011932 209.45338821 C430.81361115 206.60063501 431.75494367 203.75049343 432.69619942 200.9002943 C439.14690217 181.36424091 445.45036735 161.78321059 451.61122131 142.15386963 C460.10638457 115.11997505 468.76998287 88.13813298 477.44384766 61.16113281 C477.80833008 60.02734192 478.1728125 58.89355103 478.54833984 57.72540283 C480.2808011 52.34301217 482.02307482 46.96410599 483.79000854 41.59292603 C484.2559333 40.17383353 484.71892378 38.75377313 485.17849731 37.33261108 C493.84002611 10.59621175 493.84002611 10.59621175 505.34619141 4.66503906 C512.44080487 1.56936718 518.76536662 0.05134532 526.52172852 0 C528.28902565 -0.01441132 528.28902565 -0.01441132 530.09202576 -0.02911377 C531.35152542 -0.03336365 532.61102509 -0.03761353 533.90869141 -0.04199219 C535.86869835 -0.0505423 535.86869835 -0.0505423 537.86830139 -0.05926514 C540.62778102 -0.06973334 543.38723186 -0.07560384 546.14672852 -0.07910156 C549.66822643 -0.08458977 553.18933842 -0.10864198 556.71071529 -0.13707352 C560.08919947 -0.16025975 563.46763184 -0.16215242 566.84619141 -0.16699219 C568.10366684 -0.17933899 569.36114227 -0.19168579 570.65672302 -0.20440674 C576.97339506 -0.18835988 581.95683613 -0.13483927 587.44384766 3.16113281 C589.97502435 6.95789785 589.7944736 8.63332451 589.44384766 13.16113281 C588.69298601 16.36179952 587.66647156 19.44751521 586.61181641 22.55957031 C586.15690071 23.94275452 586.15690071 23.94275452 585.6927948 25.35388184 C584.68220238 28.41800403 583.65681164 31.47695872 582.63134766 34.53613281 C581.91057396 36.71178404 581.19070376 38.88773476 580.47167969 41.06396484 C578.54148504 46.89617237 576.59803123 52.72387062 574.65045166 58.55029297 C573.04596871 63.35181106 571.4459272 68.15480455 569.84571838 72.95774841 C567.02486705 81.42423931 564.20206306 89.8900738 561.37426758 98.35424805 C556.10992431 114.11740943 550.91220502 129.90045034 545.78662109 145.70922852 C545.22187027 147.45101814 544.65709125 149.19279861 544.09228516 150.93457031 C543.80756348 151.81269882 543.5228418 152.69082733 543.22949219 153.5955658 C540.80920329 161.05239904 538.36702903 168.50196438 535.92041016 175.95019531 C526.39257879 204.95836377 516.96146537 233.99396903 507.69726562 263.08740234 C505.36666945 270.40566483 503.03098961 277.72230051 500.69513893 285.03888702 C499.25344733 289.55507972 497.8123392 294.07145862 496.37123013 298.58783722 C495.16602116 302.3648645 493.9606152 306.14182863 492.75473022 309.91864014 C486.11811084 330.70134469 486.11811084 330.70134469 479.58447266 351.51660156 C479.30545105 352.41103973 479.02642944 353.30547791 478.73895264 354.22702026 C477.52304587 358.12518808 476.31297932 362.02485361 475.11865234 365.9296875 C470.00639077 382.47233388 464.09715473 397.77225566 449.44384766 408.16113281 C438.30203696 413.95252254 428.15490334 415.5066604 415.75634766 415.47363281 C414.56589844 415.48974609 413.37544922 415.50585938 412.14892578 415.52246094 C397.89124251 415.53021389 385.57473121 412.86129288 374.81884766 403.09863281 C366.23154579 393.69054527 361.44334106 382.12496816 356.94384766 370.41113281 C356.35078212 368.89491771 355.75659411 367.37914127 355.16137695 365.86376953 C353.89991927 362.64563637 352.64619875 359.42463972 351.3984375 356.20117188 C349.405102 351.05380226 347.38853095 345.91570497 345.36962891 340.77832031 C338.62664591 323.60193253 331.98096718 306.39160911 325.45947266 289.12988281 C315.8077639 263.58654218 306.04594637 238.08258556 296.07159424 212.66339111 C295.3224806 210.75215194 294.57567705 208.84000564 293.83123779 206.92694092 C292.80267499 204.28612116 291.76523877 201.64897218 290.72509766 199.01269531 C290.26854294 197.83347504 290.26854294 197.83347504 289.80276489 196.63043213 C288.48584554 192.68416072 288.48584554 192.68416072 285.44384766 190.16113281 C277.94585654 208.03905489 271.00672096 226.10384681 264.18701172 244.24902344 C263.44192705 246.23145753 262.69680962 248.21387932 261.95166016 250.19628906 C261.57887939 251.18819244 261.20609863 252.18009583 260.82202148 253.20205688 C256.84655011 263.76874052 252.80407252 274.30946249 248.75634766 284.84863281 C243.96604377 297.32189829 239.19356236 309.80157144 234.46899605 322.29989433 C233.73251069 324.24812703 232.99568249 326.19622976 232.2587738 328.14430237 C229.88283539 334.42607937 227.51006471 340.70901956 225.14233398 346.99389648 C221.04996863 357.83598352 216.91353594 368.65866867 212.58056641 379.40722656 C212.05504433 380.72878502 212.05504433 380.72878502 211.51890564 382.07704163 C206.03019313 395.52906428 198.25625516 405.47685781 185.26416016 412.08300781 C169.17033711 418.23521718 146.72399884 417.60491117 131.03369141 410.64941406 C115.98084353 403.09753435 108.36989602 391.38499147 103.05712891 375.64160156 C102.6820369 374.56524948 102.30694489 373.4888974 101.92048645 372.37992859 C100.74308839 368.97966074 99.58971006 365.57214718 98.44384766 362.16113281 C98.07676697 361.07253967 97.70968628 359.98394653 97.33148193 358.86236572 C94.71711655 351.08151983 92.16779498 343.28016244 89.63134766 335.47363281 C88.84095387 333.0506563 88.05042456 330.62772399 87.25976562 328.20483398 C82.53989344 313.71971525 77.90305722 299.21031991 73.34786987 284.67266846 C69.67389366 272.95292368 65.86028662 261.28658968 61.95367432 249.64245605 C57.5523584 236.52366725 53.23133383 223.38005425 48.94384766 210.22363281 C47.5819869 206.04651087 46.21995031 201.86944626 44.85791016 197.69238281 C44.50679169 196.61548187 44.15567322 195.53858093 43.79391479 194.42904663 C39.31347883 180.69022502 34.81879845 166.9560727 30.31884766 153.22363281 C30.10545494 152.57235287 29.89206223 151.92107292 29.67220306 151.25005722 C23.90871494 133.66096492 18.10359998 116.08643814 12.23156738 98.53326416 C6.31269845 80.83456597 0.5179031 63.09635619 -5.22521973 45.33990479 C-6.66483784 40.89344645 -8.11698183 36.45161875 -9.59188843 32.01673889 C-10.18819121 30.22227312 -10.77974379 28.42623097 -11.37109375 26.63012695 C-12.04759301 24.5758564 -12.73142114 22.52397501 -13.42480469 20.4753418 C-15.01999422 15.59302748 -16.18475627 11.36383336 -15.55615234 6.16113281 C-10.58974673 0.96898148 -6.9126065 0.04819922 0 0 Z " fill="#FEFEFE" transform="translate(226.55615234375,312.8388671875)"/>
<path d="M0 0 C0.495 0.99 0.495 0.99 1 2 C1.66 2.33 2.32 2.66 3 3 C2.690625 4.0725 2.38125 5.145 2.0625 6.25 C1.33187904 8.82866222 0.62517096 11.39512102 0 14 C-0.99 14 -1.98 14 -3 14 C-4.81248065 15.89260387 -4.81248065 15.89260387 -6.5 18.3125 C-10.76437545 24.11990604 -10.76437545 24.11990604 -13 26 C-15.6875 26.1875 -15.6875 26.1875 -18 26 C-18.268125 26.61875 -18.53625 27.2375 -18.8125 27.875 C-20 30 -20 30 -23 32 C-25.48046875 32.4140625 -25.48046875 32.4140625 -28.1875 32.625 C-29.08855469 32.69976563 -29.98960937 32.77453125 -30.91796875 32.8515625 C-31.60503906 32.90054688 -32.29210937 32.94953125 -33 33 C-31.54550292 30.09100583 -29.66055443 30.06127353 -26.625 29 C-15.58953674 24.52012741 -8.29669154 16.48528733 -3 6 C-2.66226563 5.35289062 -2.32453125 4.70578125 -1.9765625 4.0390625 C-1.29372567 2.70471164 -0.64166678 1.35462987 0 0 Z " fill="#056364" transform="translate(696,694)"/>
<path d="M0 0 C1.09512218 4.38048871 0.76650121 5.58139145 -0.61132812 9.73632812 C-0.98922485 10.89273804 -1.36712158 12.04914795 -1.75646973 13.24060059 C-2.17714722 14.49151489 -2.59782471 15.7424292 -3.03125 17.03125 C-3.46517403 18.34497203 -3.89822344 19.65898324 -4.33044434 20.9732666 C-5.47581948 24.44738152 -6.63397631 27.9171093 -7.79455566 31.38616943 C-8.94696374 34.8393057 -10.08589873 38.29687704 -11.2265625 41.75390625 C-13.79000175 49.51200822 -16.38904703 57.25776216 -19 65 C-19.36109863 66.07604492 -19.72219727 67.15208984 -20.09423828 68.26074219 C-21.04395612 71.08304696 -22.00388074 73.90159521 -22.96875 76.71875 C-23.23707642 77.5180896 -23.50540283 78.3174292 -23.78186035 79.14099121 C-25.07773662 82.87852973 -26.36232176 86.01639674 -29 89 C-28.38810465 85.66501243 -27.5838983 82.52928258 -26.48120117 79.32421875 C-26.17385544 78.42558105 -25.8665097 77.52694336 -25.54985046 76.60107422 C-25.2175795 75.63959473 -24.88530853 74.67811523 -24.54296875 73.6875 C-24.19873367 72.68219238 -23.8544986 71.67688477 -23.49983215 70.64111328 C-22.39871675 67.42637221 -21.29345621 64.21307862 -20.1875 61 C-17.43934978 53.00637498 -14.70273095 45.00910855 -12 37 C-11.75247986 36.27076324 -11.50495972 35.54152649 -11.24993896 34.79019165 C-10.64540712 32.99567047 -10.05810469 31.19536859 -9.47265625 29.39453125 C-9.17238525 28.47776611 -8.87211426 27.56100098 -8.56274414 26.61645508 C-7.57502651 22.02410376 -8.15575687 17.5791013 -9 13 C-7.35 12.67 -5.7 12.34 -4 12 C-2.68 8.04 -1.36 4.08 0 0 Z " fill="#095146" transform="translate(672,470)"/>
<path d="M0 0 C1.0625 1.8125 1.0625 1.8125 2 4 C1.67 4.99 1.34 5.98 1 7 C0.34 7 -0.32 7 -1 7 C-1.10911713 7.54559067 -1.21823425 8.09118134 -1.33065796 8.65330505 C-2.50765083 14.26550585 -4.10203624 19.58025449 -6.0390625 24.97265625 C-6.32478119 25.78117538 -6.61049988 26.58969452 -6.90487671 27.42271423 C-7.80668432 29.97107896 -8.71570079 32.51680007 -9.625 35.0625 C-10.24266879 36.80386582 -10.85986068 38.54540087 -11.4765625 40.28710938 C-12.97887519 44.52671377 -14.48765266 48.76396533 -16 53 C-17.16742942 49.49771174 -16.78780564 48.60037972 -15.66064453 45.17724609 C-15.34346466 44.19968353 -15.02628479 43.22212097 -14.69949341 42.2149353 C-14.34748871 41.16174103 -13.99548401 40.10854675 -13.6328125 39.0234375 C-13.27863251 37.94244781 -12.92445251 36.86145813 -12.55953979 35.74771118 C-11.80868012 33.46161662 -11.05352554 31.17692895 -10.29443359 28.89355469 C-9.12837708 25.38516084 -7.97516893 21.87275008 -6.82421875 18.359375 C-6.0944973 16.14298299 -5.3640531 13.92682877 -4.6328125 11.7109375 C-4.11087814 10.12507339 -4.11087814 10.12507339 -3.57839966 8.50717163 C-3.25491547 7.53591339 -2.93143127 6.56465515 -2.59814453 5.56396484 C-2.31311066 4.70475433 -2.02807678 3.84554382 -1.73440552 2.96029663 C-1 1 -1 1 0 0 Z " fill="#105950" transform="translate(787,413)"/>
<path d="M0 0 C3.27146749 2.64936823 4.44152682 6.07502769 5.8828125 9.8984375 C6.14254852 10.57041168 6.40228455 11.24238586 6.66989136 11.9347229 C7.21650557 13.3537878 7.75923987 14.77435253 8.29833984 16.19628906 C9.12070129 18.36367051 9.9557594 20.52581659 10.79296875 22.6875 C11.32367544 24.07002147 11.85364774 25.45282512 12.3828125 26.8359375 C12.6307254 27.47880707 12.87863831 28.12167664 13.13406372 28.7840271 C14.41020941 32.16461159 15.41508556 35.43193702 16 39 C12.4474947 34.80721758 11.07673108 30.02016238 9.28125 24.8984375 C8.19650209 21.74335384 8.19650209 21.74335384 5 20 C4.34 20.33 3.68 20.66 3 21 C3.03480469 20.26394531 3.06960938 19.52789063 3.10546875 18.76953125 C3.26088677 13.16708183 3.31715639 9.69930488 0 5 C-0.1875 2.1875 -0.1875 2.1875 0 0 Z " fill="#07605B" transform="translate(573,658)"/>
<path d="M0 0 C0.66 0.99 1.32 1.98 2 3 C1.34 3 0.68 3 0 3 C0.33 3.66 0.66 4.32 1 5 C1.66 4.67 2.32 4.34 3 4 C3.33 5.32 3.66 6.64 4 8 C3.01 8.33 2.02 8.66 1 9 C0.08723369 11.25325403 -0.45781522 13.51709989 -1.05859375 15.87109375 C-2 18 -2 18 -4.09765625 19.28515625 C-4.72542969 19.52105469 -5.35320313 19.75695312 -6 20 C-4.85210257 12.90116066 -2.88549626 6.58341381 0 0 Z " fill="#0A635E" transform="translate(743,548)"/>
<path d="M0 0 C1.25541557 3.76624671 0.37061958 5.37188934 -1 9 C-0.01 9 0.98 9 2 9 C1.67 10.98 1.34 12.96 1 15 C0.01 15.33 -0.98 15.66 -2 16 C-2.67156616 17.93618425 -2.67156616 17.93618425 -3 20 C-3.33 20.66 -3.66 21.32 -4 22 C-4.66 22 -5.32 22 -6 22 C-6.33 22.66 -6.66 23.32 -7 24 C-5.70476749 15.60998643 -2.9867484 7.91146331 0 0 Z " fill="#046161" transform="translate(704,669)"/>
<path d="M0 0 C1.0625 1.8125 1.0625 1.8125 2 4 C1.67 4.99 1.34 5.98 1 7 C0.34 7 -0.32 7 -1 7 C-1.268125 8.28003906 -1.53625 9.56007813 -1.8125 10.87890625 C-2.94916776 15.98690706 -4.42006242 20.95131086 -6 25.9375 C-6.26039063 26.78634766 -6.52078125 27.63519531 -6.7890625 28.50976562 C-7.04429687 29.31994141 -7.29953125 30.13011719 -7.5625 30.96484375 C-7.90474609 32.05720337 -7.90474609 32.05720337 -8.25390625 33.17163086 C-9 35 -9 35 -11 37 C-10.41280919 31.99061624 -9.34269917 27.55504945 -7.71484375 22.75390625 C-7.49429825 22.09792953 -7.27375275 21.44195282 -7.04652405 20.76609802 C-6.34918801 18.69626334 -5.64350868 16.62939047 -4.9375 14.5625 C-4.45972915 13.14927683 -3.98251035 11.7358669 -3.50585938 10.32226562 C-2.34360916 6.87932972 -1.17386505 3.43899571 0 0 Z " fill="#0F5754" transform="translate(736,569)"/>
<path d="M0 0 C2.17666626 -0.32279968 2.17666626 -0.32279968 4.90869141 -0.2487793 C6.44005234 -0.21840828 6.44005234 -0.21840828 8.00234985 -0.18742371 C9.66021011 -0.13138725 9.66021011 -0.13138725 11.3515625 -0.07421875 C12.4807309 -0.04777786 13.60989929 -0.02133698 14.77328491 0.00590515 C18.39104737 0.09389734 22.00783167 0.20296873 25.625 0.3125 C28.07288126 0.37573478 30.52079827 0.4376016 32.96875 0.49804688 C38.97967198 0.64947506 44.9899233 0.81822769 51 1 C51 1.33 51 1.66 51 2 C33.51 2.33 16.02 2.66 -2 3 C-1.34 2.01 -0.68 1.02 0 0 Z " fill="#01A777" transform="translate(224,309)"/>
<path d="M0 0 C1.00569779 4.02279115 1.00730064 4.85550011 -0.21484375 8.546875 C-0.48876953 9.39121094 -0.76269531 10.23554688 -1.04492188 11.10546875 C-1.48674805 12.41451172 -1.48674805 12.41451172 -1.9375 13.75 C-2.22818359 14.63816406 -2.51886719 15.52632813 -2.81835938 16.44140625 C-3.53639318 18.63082079 -4.26385523 20.81662189 -5 23 C-8.42436208 20.0163065 -8.57781494 17.4751616 -9 13 C-7.35 12.67 -5.7 12.34 -4 12 C-2.68 8.04 -1.36 4.08 0 0 Z " fill="#09685E" transform="translate(672,470)"/>
<path d="M0 0 C0.87840996 3.09720845 0.99435406 4.90645403 0 8 C0.66 8 1.32 8 2 8 C2 8.66 2 9.32 2 10 C1.01 10 0.02 10 -1 10 C-0.67 11.32 -0.34 12.64 0 14 C-0.99 14.66 -1.98 15.32 -3 16 C-4.00168531 17.94832935 -4.00168531 17.94832935 -4.6875 20.125 C-4.93886719 20.84945312 -5.19023438 21.57390625 -5.44921875 22.3203125 C-5.63097656 22.87460937 -5.81273437 23.42890625 -6 24 C-7.17791932 20.46624203 -6.75415072 19.55148893 -5.56640625 16.11328125 C-5.0878418 14.7065918 -5.0878418 14.7065918 -4.59960938 13.27148438 C-4.25736328 12.29501953 -3.91511719 11.31855469 -3.5625 10.3125 C-3.22412109 9.32443359 -2.88574219 8.33636719 -2.53710938 7.31835938 C-1.69940026 4.87602435 -0.85342917 2.43687729 0 0 Z " fill="#0B5C5A" transform="translate(712,644)"/>
<path d="M0 0 C2.64 0.33 5.28 0.66 8 1 C7.56179109 5.55737263 7.14958831 8.57653445 4 12 C3.32645501 10.56570999 2.66140299 9.12742943 2 7.6875 C1.62875 6.88699219 1.2575 6.08648438 0.875 5.26171875 C0 3 0 3 0 0 Z " fill="#046B61" transform="translate(621,537)"/>
<path d="M0 0 C0.99 1.0209375 0.99 1.0209375 2 2.0625 C7.54994799 7.58109236 13.03307986 12.37139576 20 16 C16.69693408 17.10102197 15.28414305 16.95067299 12 16 C11.67 15.34 11.34 14.68 11 14 C10.278125 13.278125 9.55625 12.55625 8.8125 11.8125 C6.68911893 9.68911893 4.66742576 7.56454826 2.6875 5.3125 C2.17574219 4.73113281 1.66398438 4.14976562 1.13671875 3.55078125 C0 2 0 2 0 0 Z " fill="#074B44" transform="translate(595,708)"/>
<path d="M0 0 C0.66 0 1.32 0 2 0 C2.5775 1.0725 3.155 2.145 3.75 3.25 C5.10566085 5.67668116 6.01356162 7.01123677 8.1875 8.8125 C11.11666727 12.34770188 10.82963578 16.53645731 11 21 C7.74808801 17.18387615 5.88372853 12.76700109 3.8125 8.25 C3.44447266 7.45722656 3.07644531 6.66445313 2.69726562 5.84765625 C1.79400508 3.90036728 0.8964359 1.95044011 0 0 Z " fill="#108656" transform="translate(305,324)"/>
<path d="M0 0 C1.03994977 4.15979908 0.95550771 4.96387365 -0.43359375 8.765625 C-0.9121582 10.09980469 -0.9121582 10.09980469 -1.40039062 11.4609375 C-1.91375977 12.84152344 -1.91375977 12.84152344 -2.4375 14.25 C-2.77587891 15.18585938 -3.11425781 16.12171875 -3.46289062 17.0859375 C-4.29907822 19.39428634 -5.14504056 21.69855191 -6 24 C-7.06546953 20.8035914 -7.07427838 18.34252724 -7 15 C-6.34 15 -5.68 15 -5 15 C-3.35 10.05 -1.7 5.1 0 0 Z " fill="#06594B" transform="translate(705,367)"/>
<path d="M0 0 C2.90039305 2.46700099 3.97011276 4.9468802 5.25 8.5 C5.78367187 9.93859375 5.78367187 9.93859375 6.328125 11.40625 C7 14 7 14 6 17 C4.35 13.37 2.7 9.74 1 6 C0.34 6.66 -0.32 7.32 -1 8 C-0.67 5.36 -0.34 2.72 0 0 Z " fill="#086156" transform="translate(536,562)"/>
<path d="M0 0 C1.0625 1.8125 1.0625 1.8125 2 4 C1.67 4.99 1.34 5.98 1 7 C0.34 7 -0.32 7 -1 7 C-1.66 9.97 -2.32 12.94 -3 16 C-3.66 15.67 -4.32 15.34 -5 15 C-4.54705135 13.24859857 -4.08741252 11.49892656 -3.625 9.75 C-3.36976563 8.77546875 -3.11453125 7.8009375 -2.8515625 6.796875 C-2.10401491 4.34162697 -1.22876183 2.24382595 0 0 Z " fill="#13615A" transform="translate(787,413)"/>
<path d="M0 0 C4.9723422 1.49170266 9.41845739 3.60457417 14 6 C10.06329512 7.31223496 7.87511856 6.24296256 4 5 C3.67 5.66 3.34 6.32 3 7 C2.34 6.67 1.68 6.34 1 6 C1 5.34 1 4.68 1 4 C1.66 4 2.32 4 3 4 C3 3.34 3 2.68 3 2 C2.01 1.67 1.02 1.34 0 1 C0 0.67 0 0.34 0 0 Z " fill="#0B665B" transform="translate(349,719)"/>
<path d="M0 0 C0.91204104 3.07813852 1.24682644 5.79125624 1 9 C0.01 10.485 0.01 10.485 -1 12 C-1.66 12 -2.32 12 -3 12 C-3.33 12.66 -3.66 13.32 -4 14 C-3.71572583 12.41532272 -3.42225182 10.8322943 -3.125 9.25 C-2.96257813 8.36828125 -2.80015625 7.4865625 -2.6328125 6.578125 C-2.03203736 4.13052256 -1.22002883 2.19400143 0 0 Z " fill="#0A5B5B" transform="translate(701,679)"/>
<path d="M0 0 C3.19456081 2.63081478 4.29085201 5.68904879 5.75 9.5 C6.42289063 11.21703125 6.42289063 11.21703125 7.109375 12.96875 C8 16 8 16 7 19 C6.57847656 18.07316406 6.15695312 17.14632812 5.72265625 16.19140625 C4.90087891 14.39509766 4.90087891 14.39509766 4.0625 12.5625 C3.51722656 11.36753906 2.97195313 10.17257812 2.41015625 8.94140625 C1.28253144 6.17188674 1.28253144 6.17188674 0 5 C-0.04063832 3.33382885 -0.042721 1.66611905 0 0 Z " fill="#08544D" transform="translate(573,658)"/>
<path d="M0 0 C0.33 0.66 0.66 1.32 1 2 C1.66 2.33 2.32 2.66 3 3 C2.67 3.66 2.34 4.32 2 5 C1.01 5 0.02 5 -1 5 C-1.28875 5.928125 -1.5775 6.85625 -1.875 7.8125 C-3 11 -3 11 -5 14 C-5.66 13.67 -6.32 13.34 -7 13 C-3.535 6.565 -3.535 6.565 0 0 Z " fill="#085656" transform="translate(696,694)"/>
<path d="M0 0 C1.4606285 2.64738916 2 3.89448334 2 7 C1.34 7 0.68 7 0 7 C-0.33 7.66 -0.66 8.32 -1 9 C-2.30915279 10.03145371 -3.64082143 11.03542166 -5 12 C-4.54738642 10.56068883 -4.08767021 9.12361001 -3.625 7.6875 C-3.24214844 6.48673828 -3.24214844 6.48673828 -2.8515625 5.26171875 C-2 3 -2 3 0 0 Z " fill="#045D54" transform="translate(439,692)"/>
<path d="M0 0 C0.66 0.99 1.32 1.98 2 3 C1.34 3 0.68 3 0 3 C0.33 3.99 0.66 4.98 1 6 C0.22265625 8.04296875 0.22265625 8.04296875 -0.9375 10.1875 C-1.31777344 10.90292969 -1.69804688 11.61835938 -2.08984375 12.35546875 C-2.54037109 13.16951172 -2.54037109 13.16951172 -3 14 C-4.37095624 10.30962722 -3.60010967 8.29116165 -2.0625 4.75 C-1.68222656 3.85796875 -1.30195312 2.9659375 -0.91015625 2.046875 C-0.60980469 1.37140625 -0.30945313 0.6959375 0 0 Z " fill="#0D5F56" transform="translate(792,398)"/>
<path d="M0 0 C0.99 0.33 1.98 0.66 3 1 C2.6875 3.875 2.6875 3.875 2 7 C1.01 7.66 0.02 8.32 -1 9 C-2.25541557 5.23375329 -1.37061958 3.62811066 0 0 Z " fill="#0B7066" transform="translate(795,387)"/>
<path d="M0 0 C1.98 0 3.96 0 6 0 C6.33 1.32 6.66 2.64 7 4 C6.01 4.495 6.01 4.495 5 5 C2.375 4.0625 2.375 4.0625 0 3 C0 2.01 0 1.02 0 0 Z " fill="#08736C" transform="translate(634,560)"/>
<path d="M0 0 C0.66 0 1.32 0 2 0 C1.50769231 6.52307692 1.50769231 6.52307692 -1.0625 8.9375 C-1.701875 9.288125 -2.34125 9.63875 -3 10 C-2.69201674 8.51988629 -2.378482 7.04092675 -2.0625 5.5625 C-1.88847656 4.73878906 -1.71445312 3.91507813 -1.53515625 3.06640625 C-1 1 -1 1 0 0 Z " fill="#017472" transform="translate(733,584)"/>
<path d="M0 0 C3.67230705 3.07999946 4.56802365 5.2482602 5 10 C4.360625 9.195625 3.72125 8.39125 3.0625 7.5625 C1.59396498 5.7249496 1.59396498 5.7249496 0 4 C-0.66 4.66 -1.32 5.32 -2 6 C-1.125 1.125 -1.125 1.125 0 0 Z " fill="#085846" transform="translate(512,502)"/>
<path d="M0 0 C1.32 0.99 2.64 1.98 4 3 C3.01 4.98 2.02 6.96 1 9 C0.34 8.34 -0.32 7.68 -1 7 C-0.625 3.375 -0.625 3.375 0 0 Z " fill="#046968" transform="translate(719,622)"/>
<path d="M0 0 C4.40114397 0.50298788 6.71195019 2.08772731 10 5 C6.625 5.1875 6.625 5.1875 3 5 C1 2 1 2 0 0 Z " fill="#085957" transform="translate(605,720)"/>
<path d="M0 0 C1 3 1 3 -0.1875 5.625 C-2 8 -2 8 -4.1875 8.8125 C-4.785625 8.874375 -5.38375 8.93625 -6 9 C-4.6970768 6.093479 -3.29126619 4.19164592 -1 2 C-0.67 1.34 -0.34 0.68 0 0 Z " fill="#05746B" transform="translate(437,699)"/>
<path d="M0 0 C0.99 0 1.98 0 3 0 C2.67 2.97 2.34 5.94 2 9 C1.01 9.33 0.02 9.66 -1 10 C-0.67 6.7 -0.34 3.4 0 0 Z " fill="#027071" transform="translate(704,668)"/>
<path d="M0 0 C1.3398153 4.01944589 0.27163587 5.44586283 -1.5625 9.1875 C-2.2740625 10.5796875 -2.2740625 10.5796875 -3 12 C-4.21386936 8.35839192 -3.6674695 7.66834531 -2.0625 4.3125 C-1.49208984 3.10013672 -1.49208984 3.10013672 -0.91015625 1.86328125 C-0.60980469 1.24839844 -0.30945313 0.63351562 0 0 Z " fill="#0B5B52" transform="translate(452,658)"/>
<path d="M0 0 C0.66 1.32 1.32 2.64 2 4 C2.66 4 3.32 4 4 4 C3.67 4.66 3.34 5.32 3 6 C0.4375 6.625 0.4375 6.625 -2 7 C-1.125 1.125 -1.125 1.125 0 0 Z " fill="#04695B" transform="translate(482,579)"/>
<path d="M0 0 C0.33 0.66 0.66 1.32 1 2 C0.0409375 2.1546875 0.0409375 2.1546875 -0.9375 2.3125 C-1.618125 2.539375 -2.29875 2.76625 -3 3 C-3.33 3.99 -3.66 4.98 -4 6 C-5.65 5.67 -7.3 5.34 -9 5 C-6.3534665 2.3534665 -3.43778736 1.40058003 0 0 Z " fill="#025B4F" transform="translate(416,722)"/>
<path d="M0 0 C1 3 1 3 1 5 C0.34 5 -0.32 5 -1 5 C-1.99 8.465 -1.99 8.465 -3 12 C-4.21386936 8.35839192 -3.6674695 7.66834531 -2.0625 4.3125 C-1.49208984 3.10013672 -1.49208984 3.10013672 -0.91015625 1.86328125 C-0.60980469 1.24839844 -0.30945313 0.63351562 0 0 Z " fill="#0D5E4E" transform="translate(505,519)"/>
<path d="M0 0 C0.33 0.66 0.66 1.32 1 2 C0.0625 4.625 0.0625 4.625 -1 7 C-1.99 7 -2.98 7 -4 7 C-3.39816251 4.97954558 -2.72693904 2.97888961 -2 1 C-1.34 0.67 -0.68 0.34 0 0 Z " fill="#02736F" transform="translate(742,559)"/>
<path d="M0 0 C0.33 0.66 0.66 1.32 1 2 C1.66 2 2.32 2 3 2 C4.125 7.625 4.125 7.625 3 11 C2.49384702 9.73160474 1.99530901 8.46016898 1.5 7.1875 C1.2215625 6.47980469 0.943125 5.77210938 0.65625 5.04296875 C0 3 0 3 0 0 Z " fill="#066E4F" transform="translate(358,475)"/>
<path d="M0 0 C2.29633824 3.44450737 2.54016485 5.93812283 3 10 C2.01 10.495 2.01 10.495 1 11 C-0.62950412 6.87831311 -1.26264601 4.29299643 0 0 Z " fill="#0E815A" transform="translate(342,421)"/>
<path d="M0 0 C2.31 0.33 4.62 0.66 7 1 C7.33 1.99 7.66 2.98 8 4 C5.125 3.6875 5.125 3.6875 2 3 C1.34 2.01 0.68 1.02 0 0 Z " fill="#086764" transform="translate(615,725)"/>
<path d="M0 0 C1.98 0.495 1.98 0.495 4 1 C2.02 3.97 2.02 3.97 0 7 C-0.93423645 3.98968256 -1.04449911 3.13349732 0 0 Z " fill="#02746F" transform="translate(748,535)"/>
<path d="M0 0 C1.0625 1.8125 1.0625 1.8125 2 4 C1.67 4.99 1.34 5.98 1 7 C0.01 6.67 -0.98 6.34 -2 6 C-1.34 4.02 -0.68 2.04 0 0 Z " fill="#0D6A64" transform="translate(787,413)"/>
</svg>
